<svg width="20" height="20" viewBox="0 0 20 20" fill="none" xmlns="http://www.w3.org/2000/svg">
<path d="M4.01536 1.91868C5.50025 0.834208 7.25208 0.166842 9.08734 0V3.01983C7.90277 3.16999 6.78493 3.62046 5.81725 4.33788C4.61599 5.23883 3.71504 6.49014 3.28126 7.92498C2.84747 9.35982 2.88084 10.8948 3.38136 12.3129C3.88189 13.7311 4.83288 14.949 6.08419 15.7832C7.33551 16.6174 8.82039 17.0345 10.322 16.9678C11.8235 16.9011 13.2584 16.3505 14.4263 15.3995C15.5942 14.4485 16.4117 13.1471 16.7787 11.6956C17.029 10.6779 17.0624 9.62676 16.8622 8.60903L19.3982 6.57356V6.55688C20.0822 8.44219 20.1823 10.4943 19.6985 12.4464C19.1646 14.5319 17.9967 16.3839 16.3283 17.7353C14.6599 19.0867 12.6077 19.8875 10.4721 19.9876C8.33656 20.0877 6.20098 19.5038 4.43246 18.3025C2.64726 17.1013 1.29584 15.3661 0.578419 13.3473C-0.139001 11.3285 -0.189052 9.12624 0.428262 7.07409C1.02889 5.00525 2.29689 3.20336 4.01536 1.91868Z" fill="white"/>
<path d="M17.4797 3.33617L17.4964 3.36954L15.7946 6.05569C15.1773 5.13806 14.3598 4.38727 13.3921 3.8367V9.95979C13.3921 11.8451 11.8738 13.3634 9.98853 13.3634C8.10322 13.3634 6.58496 11.8451 6.58496 9.95979C6.58496 8.07447 8.10322 6.55622 9.98853 6.55622C10.6893 6.55622 11.34 6.77311 11.8905 7.14016V0.132812C14.0928 0.566601 16.0449 1.71781 17.4797 3.33617Z" fill="white"/>
</svg>
