<?xml version="1.0" encoding="utf-8"?>
<!-- Generator: Adobe Illustrator 27.2.0, SVG Export Plug-In . SVG Version: 6.00 Build 0)  -->
<svg version="1.1" id="Слой_1" xmlns="http://www.w3.org/2000/svg" xmlns:xlink="http://www.w3.org/1999/xlink" x="0px" y="0px"
	 viewBox="0 0 23 23" style="enable-background:new 0 0 23 23;" xml:space="preserve">
<style type="text/css">
	.st0{fill:#FFFFFF;}
</style>
<path class="st0" d="M22.6,5.6c0-2.8-2.3-5.2-5.2-5.2c-2.6,0-4.7,1.9-5.1,4.4L1,18.6c-0.7,0.8-0.7,1.9-0.1,2.5L2,22.2
	c0.3,0.3,0.7,0.4,1.1,0.4c0.5,0,1-0.2,1.4-0.6l13.8-11.4C20.7,10.3,22.6,8.1,22.6,5.6z M21.4,5.6c0,1-0.3,1.8-0.9,2.5
	c-1-0.3-2.2-1.1-3.2-2.1c-1.2-1.2-2-2.6-2.3-3.7c0.6-0.5,1.5-0.7,2.3-0.7C19.6,1.6,21.4,3.4,21.4,5.6z M14.2,3.2
	c0.4,1.2,1.2,2.4,2.4,3.6c0.9,0.9,2,1.7,3,2.1c-0.6,0.4-1.4,0.6-2.1,0.6c-2.2,0-4-1.8-4-4C13.4,4.7,13.7,3.9,14.2,3.2z M3.7,21.2
	c-0.4,0.3-0.8,0.3-0.9,0.2l-1.1-1.1c-0.2-0.2-0.1-0.6,0.2-0.9L12.4,6.6c0.4,2,2,3.6,4.1,4.1L3.7,21.2z"/>
</svg>
