<svg width="24" height="24" viewBox="0 0 24 24" fill="none" xmlns="http://www.w3.org/2000/svg">
<path d="M14.1988 11.9803L23.5439 21.3258C24.1521 21.9336 24.1521 22.9165 23.5439 23.5244C22.936 24.1323 21.9532 24.1323 21.3453 23.5244L11.9999 14.179L2.65474 23.5244C2.04658 24.1323 1.064 24.1323 0.456124 23.5244C-0.152041 22.9165 -0.152041 21.9336 0.456124 21.3258L9.80125 11.9803L0.456124 2.63494C-0.152041 2.02706 -0.152041 1.04421 0.456124 0.436327C0.759068 0.133098 1.15739 -0.0192261 1.55543 -0.0192261C1.95347 -0.0192261 2.35152 0.133098 2.65474 0.436327L11.9999 9.78174L21.3453 0.436327C21.6485 0.133098 22.0466 -0.0192261 22.4446 -0.0192261C22.8426 -0.0192261 23.2407 0.133098 23.5439 0.436327C24.1521 1.04421 24.1521 2.02706 23.5439 2.63494L14.1988 11.9803Z" fill="white"/>
</svg>
