<svg width="25" height="25" viewBox="0 0 25 25" fill="none" xmlns="http://www.w3.org/2000/svg">
<path d="M15.6247 23.6976H9.37468C7.99968 23.6976 6.85385 23.5622 5.8851 23.2706C5.53093 23.1664 5.30177 22.8226 5.3226 22.458C5.58302 19.3435 8.73927 16.8955 12.4997 16.8955C16.2601 16.8955 19.4059 19.333 19.6768 22.458C19.708 22.833 19.4788 23.1664 19.1143 23.2706C18.1455 23.5622 16.9997 23.6976 15.6247 23.6976ZM6.99968 21.9372C7.68718 22.0726 8.46843 22.1351 9.37468 22.1351H15.6247C16.5309 22.1351 17.3122 22.0726 17.9997 21.9372C17.4476 19.9372 15.1663 18.458 12.4997 18.458C9.83302 18.458 7.55177 19.9372 6.99968 21.9372Z" fill="white"/>
<path d="M15.6257 2.08301H9.37565C4.16732 2.08301 2.08398 4.16634 2.08398 9.37467V15.6247C2.08398 19.5622 3.27149 21.7184 6.10482 22.5205C6.33399 19.8122 9.11523 17.6767 12.5007 17.6767C15.8861 17.6767 18.6673 19.8122 18.8965 22.5205C21.7298 21.7184 22.9173 19.5622 22.9173 15.6247V9.37467C22.9173 4.16634 20.834 2.08301 15.6257 2.08301ZM12.5007 14.7601C10.4382 14.7601 8.77148 13.083 8.77148 11.0205C8.77148 8.95803 10.4382 7.29134 12.5007 7.29134C14.5632 7.29134 16.2298 8.95803 16.2298 11.0205C16.2298 13.083 14.5632 14.7601 12.5007 14.7601Z" stroke="white" stroke-width="1.5" stroke-linecap="round" stroke-linejoin="round"/>
<path d="M12.4997 15.542C10.0101 15.542 7.98926 13.5108 7.98926 11.0212C7.98926 8.53159 10.0101 6.51074 12.4997 6.51074C14.9893 6.51074 17.0101 8.53159 17.0101 11.0212C17.0101 13.5108 14.9893 15.542 12.4997 15.542ZM12.4997 8.07324C10.8747 8.07324 9.55176 9.39618 9.55176 11.0212C9.55176 12.6566 10.8747 13.9795 12.4997 13.9795C14.1247 13.9795 15.4476 12.6566 15.4476 11.0212C15.4476 9.39618 14.1247 8.07324 12.4997 8.07324Z" fill="white"/>
</svg>
