<svg width="43" height="23" viewBox="0 0 43 23" fill="none" xmlns="http://www.w3.org/2000/svg">
<path d="M26.361 7.71763L23.7828 6.54785C23.1453 8.39723 22.3684 12.1624 23.6178 17.9233C23.8518 19 24.2792 19.9521 24.8402 20.7164C26.8185 20.5254 27.2445 19.5583 27.2445 19.5583C26.844 18.8471 26.6295 18.1492 26.6295 18.1492C25.4776 14.4538 25.6921 10.2084 26.361 7.71763Z" fill="#FBFBFB"/>
<path d="M25.4844 18.9593C25.4844 18.9593 26.1563 7.54571 28.9341 3.0444C28.9341 3.0444 31.4883 2.52265 32.9222 5.8492C34.3561 9.17575 30.9004 19.8716 30.9004 19.8716L28.3971 19.3349C28.3971 19.3349 29.921 6.54043 29.4275 5.23607C28.9341 3.9317 26.2943 11.4439 26.8073 19.7336L25.4844 18.9593Z" fill="#FBFBFB"/>
<path d="M40.9075 12.9781C40.612 14.3007 38.0232 19.2806 37.3108 15.8178C37.1293 14.9371 38.1252 12.3383 38.6757 11.3646C39.1976 10.4408 38.4462 8.15272 38.0892 7.40832C37.8583 6.9547 37.2838 6.9979 36.6914 7.20228C35.4315 7.63596 34.5751 9.21449 33.7771 10.6069C33.3482 11.3563 32.6387 12.8883 32.2383 14.1329L30.9004 19.7059C32.7152 16.0786 35.187 13.1642 36.5219 11.8614C33.1937 18.9233 37.4593 19.5431 37.4593 19.5431C40.2025 19.7126 42.6188 14.1113 42.6188 14.1113C42.6428 14.0564 40.9075 12.9781 40.9075 12.9781Z" fill="#FBFBFB"/>
<path d="M12.9146 4.96251C13.084 0.672223 19.0175 -0.436074 22.1282 0.773581C23.1781 1.18234 23.0176 2.73262 22.7522 3.59334C22.2392 5.25828 19.7824 6.95977 19.7824 6.95977C19.7824 6.95977 22.3157 6.04588 22.4942 10.0969C22.6412 13.4334 19.9504 17.6739 16.9597 19.6279C15.5663 20.5385 13.81 20.6282 12.7136 19.5216C12.2261 19.0297 11.6682 18.0294 11.5557 16.9843C11.2287 13.9419 12.4931 9.50702 14.1429 8.73105C16.3177 7.7075 16.4827 10.4176 16.4827 10.4176C16.4827 10.4176 13.702 10.8646 12.9446 16.6187C12.8186 17.5775 13.6465 18.292 14.2974 17.7337C17.5236 14.9604 18.908 12.5361 19.8304 10.6751C20.4229 9.48044 19.9639 8.10296 18.9365 8.39374C18.5555 8.50175 17.9856 8.65794 17.4606 8.89056L16.5337 6.61415C16.5337 6.61415 20.8743 4.19484 20.9718 2.85392C21.1158 0.855 14.4174 3.37899 15.1674 7.05947C15.1644 7.05947 12.8366 6.9498 12.9146 4.96251Z" fill="#FBFBFB"/>
<path d="M11.1546 3.66114C10.1662 2.90677 9.05782 2.60435 7.97792 2.5545C7.97792 2.55284 7.97942 2.55284 7.97942 2.55118C4.59123 2.27702 -0.0433488 3.91703 0.250624 6.81488C0.421609 8.49976 2.6594 8.55293 2.6594 8.55293C2.55441 7.66065 2.98337 6.79328 3.63281 6.06716L3.63731 6.07713C3.63731 6.07713 6.74953 2.66417 10.3057 4.70962C12.3665 5.89601 8.1789 13.0825 4.95119 11.9925C4.09927 11.705 3.7498 11.1417 3.41983 11.1633C3.16186 11.1799 3.35234 12.7219 3.42283 12.9712C3.69731 13.9249 4.93769 17.0604 8.95133 14.5962C11.6121 12.9612 14.8128 6.45265 11.1546 3.66114Z" fill="#FBFBFB"/>
<path d="M7.81418 18.5867C4.63447 18.708 4.70796 15.2153 5.03043 13.1383C5.24341 12.1613 5.54189 11.1942 5.95735 10.2903C6.4628 9.18865 7.02525 8.44092 7.64319 7.34592C7.64319 7.34592 5.04543 5.18914 3.27259 8.06872C2.33218 9.59574 0.500846 17.0813 4.83245 22.4749L4.87145 22.6278C4.89394 22.6211 4.91344 22.6112 4.93444 22.6045C4.94194 22.6145 4.94944 22.6245 4.95844 22.6344C4.95844 22.6344 4.95544 22.6195 4.95244 22.5979C7.99266 21.5062 7.81418 18.5867 7.81418 18.5867Z" fill="#FBFBFB"/>
</svg>
