<svg width="28" height="29" viewBox="0 0 28 29" fill="none" xmlns="http://www.w3.org/2000/svg">
<path d="M9.04701 26.1411C8.73035 26.1411 8.40235 26.0619 8.1083 25.9036C7.46366 25.5643 7.06785 24.8857 7.06785 24.1619V22.556C3.65237 22.2054 1.41309 19.6946 1.41309 16.0982V9.31255C1.41309 5.42207 4.02559 2.80957 7.91606 2.80957H19.2256C23.1161 2.80957 25.7286 5.42207 25.7286 9.31255V16.0982C25.7286 19.9887 23.1161 22.6012 19.2256 22.6012H14.9619L10.144 25.8132C9.81603 26.028 9.43154 26.1411 9.04701 26.1411ZM7.91606 4.49468C4.9982 4.49468 3.10951 6.38337 3.10951 9.30123V16.087C3.10951 19.0049 4.9982 20.8936 7.91606 20.8936C8.37975 20.8936 8.76428 21.2781 8.76428 21.7418V24.1507C8.76428 24.2977 8.85476 24.3656 8.91131 24.3995C8.96785 24.4334 9.08096 24.4673 9.20536 24.3882L14.2381 21.0406C14.3738 20.9501 14.5435 20.8936 14.7131 20.8936H19.2369C22.1548 20.8936 24.0435 19.0049 24.0435 16.087V9.30123C24.0435 6.38337 22.1548 4.49468 19.2369 4.49468H7.91606Z" fill="white"/>
<path d="M13.5713 14.5943C13.1076 14.5943 12.7231 14.2098 12.7231 13.7461V13.5086C12.7231 12.1967 13.6843 11.5521 14.0462 11.3033C14.4647 11.0205 14.6004 10.8283 14.6004 10.5342C14.6004 9.96875 14.1367 9.50502 13.5713 9.50502C13.0058 9.50502 12.5421 9.96875 12.5421 10.5342C12.5421 10.9979 12.1576 11.3824 11.6939 11.3824C11.2302 11.3824 10.8457 10.9979 10.8457 10.5342C10.8457 9.03006 12.0671 7.80859 13.5713 7.80859C15.0754 7.80859 16.2968 9.03006 16.2968 10.5342C16.2968 11.8235 15.3469 12.4681 14.9963 12.7056C14.5552 12.9997 14.4195 13.192 14.4195 13.5086V13.7461C14.4195 14.2211 14.035 14.5943 13.5713 14.5943Z" fill="white"/>
<path d="M13.5718 17.4103C13.0968 17.4103 12.7236 17.0258 12.7236 16.5621C12.7236 16.0984 13.1082 15.7139 13.5718 15.7139C14.0355 15.7139 14.4201 16.0984 14.4201 16.5621C14.4201 17.0258 14.0468 17.4103 13.5718 17.4103Z" fill="white"/>
</svg>
