<svg width="28" height="28" viewBox="0 0 28 28" fill="none" xmlns="http://www.w3.org/2000/svg">
<path d="M20.12 25.7294H7.02359C3.92478 25.7294 1.41406 23.2073 1.41406 20.1085V11.7282C1.41406 10.1901 2.36406 8.25616 3.58549 7.30616L9.68132 2.55616C11.5135 1.13116 14.4426 1.0633 16.3426 2.39782L23.3319 7.29485C24.6778 8.23354 25.7295 10.2466 25.7295 11.8865V20.1198C25.7295 23.2073 23.2188 25.7294 20.12 25.7294ZM10.7218 3.89068L4.62597 8.64068C3.82299 9.27401 3.11049 10.7103 3.11049 11.7282V20.1085C3.11049 22.2687 4.86347 24.0329 7.02359 24.0329H20.12C22.2801 24.0329 24.0331 22.28 24.0331 20.1198V11.8865C24.0331 10.8008 23.2528 9.29663 22.3593 8.68592L15.37 3.78889C14.0807 2.88413 11.9545 2.92937 10.7218 3.89068Z" fill="white"/>
<path d="M13.5718 21.2055C13.1082 21.2055 12.7236 20.821 12.7236 20.3573V16.9644C12.7236 16.5007 13.1082 16.1162 13.5718 16.1162C14.0355 16.1162 14.4201 16.5007 14.4201 16.9644V20.3573C14.4201 20.821 14.0355 21.2055 13.5718 21.2055Z" fill="white"/>
</svg>
